<mxfile host="app.diagrams.net" modified="2023-09-19T17:55:11.768Z" agent="Mozilla/5.0 (Windows NT 10.0; Win64; x64) AppleWebKit/537.36 (KHTML, like Gecko) Chrome/116.0.0.0 Safari/537.36" etag="xA-i8YOZtntL38ucp5OA" version="21.7.5" type="github">
  <diagram id="C5RBs43oDa-KdzZeNtuy" name="Page-1">
    <mxGraphModel dx="2577" dy="2072" grid="1" gridSize="10" guides="1" tooltips="1" connect="1" arrows="1" fold="1" page="1" pageScale="1" pageWidth="827" pageHeight="1169" math="0" shadow="0">
      <root>
        <mxCell id="WIyWlLk6GJQsqaUBKTNV-0" />
        <mxCell id="WIyWlLk6GJQsqaUBKTNV-1" parent="WIyWlLk6GJQsqaUBKTNV-0" />
        <mxCell id="WIyWlLk6GJQsqaUBKTNV-2" value="" style="rounded=0;html=1;jettySize=auto;orthogonalLoop=1;fontSize=11;endArrow=block;endFill=0;endSize=8;strokeWidth=1;shadow=0;labelBackgroundColor=none;edgeStyle=orthogonalEdgeStyle;" parent="WIyWlLk6GJQsqaUBKTNV-1" source="WIyWlLk6GJQsqaUBKTNV-3" target="WIyWlLk6GJQsqaUBKTNV-6" edge="1">
          <mxGeometry relative="1" as="geometry" />
        </mxCell>
        <mxCell id="3buiqdaI4TqFU0zn9uId-1" value="" style="edgeStyle=orthogonalEdgeStyle;rounded=0;orthogonalLoop=1;jettySize=auto;html=1;entryX=0.5;entryY=1;entryDx=0;entryDy=0;" edge="1" parent="WIyWlLk6GJQsqaUBKTNV-1" source="WIyWlLk6GJQsqaUBKTNV-3" target="3buiqdaI4TqFU0zn9uId-12">
          <mxGeometry relative="1" as="geometry">
            <mxPoint x="220" y="10" as="targetPoint" />
          </mxGeometry>
        </mxCell>
        <mxCell id="WIyWlLk6GJQsqaUBKTNV-3" value="weigh 4 &amp;amp; 4. leave 4 ina&amp;nbsp; pile" style="rounded=1;whiteSpace=wrap;html=1;fontSize=12;glass=0;strokeWidth=1;shadow=0;fillColor=#d5e8d4;strokeColor=#82b366;" parent="WIyWlLk6GJQsqaUBKTNV-1" vertex="1">
          <mxGeometry x="160" y="80" width="120" height="40" as="geometry" />
        </mxCell>
        <mxCell id="WIyWlLk6GJQsqaUBKTNV-5" value="No" style="edgeStyle=orthogonalEdgeStyle;rounded=0;html=1;jettySize=auto;orthogonalLoop=1;fontSize=11;endArrow=block;endFill=0;endSize=8;strokeWidth=1;shadow=0;labelBackgroundColor=none;" parent="WIyWlLk6GJQsqaUBKTNV-1" source="WIyWlLk6GJQsqaUBKTNV-6" target="3buiqdaI4TqFU0zn9uId-46" edge="1">
          <mxGeometry x="-0.01" y="-10" relative="1" as="geometry">
            <mxPoint x="10" y="-10" as="offset" />
            <mxPoint x="360" y="210" as="targetPoint" />
          </mxGeometry>
        </mxCell>
        <mxCell id="3buiqdaI4TqFU0zn9uId-34" value="Yes" style="edgeStyle=orthogonalEdgeStyle;rounded=0;orthogonalLoop=1;jettySize=auto;html=1;" edge="1" parent="WIyWlLk6GJQsqaUBKTNV-1" source="WIyWlLk6GJQsqaUBKTNV-6" target="3buiqdaI4TqFU0zn9uId-13">
          <mxGeometry relative="1" as="geometry" />
        </mxCell>
        <mxCell id="WIyWlLk6GJQsqaUBKTNV-6" value="equal weight" style="rhombus;whiteSpace=wrap;html=1;shadow=0;fontFamily=Helvetica;fontSize=12;align=center;strokeWidth=1;spacing=6;spacingTop=-4;rounded=1;fillColor=#fff2cc;strokeColor=#d6b656;" parent="WIyWlLk6GJQsqaUBKTNV-1" vertex="1">
          <mxGeometry x="170" y="170" width="100" height="80" as="geometry" />
        </mxCell>
        <mxCell id="3buiqdaI4TqFU0zn9uId-6" value="" style="edgeStyle=orthogonalEdgeStyle;rounded=0;orthogonalLoop=1;jettySize=auto;html=1;" edge="1" parent="WIyWlLk6GJQsqaUBKTNV-1" source="WIyWlLk6GJQsqaUBKTNV-11" target="3buiqdaI4TqFU0zn9uId-5">
          <mxGeometry relative="1" as="geometry" />
        </mxCell>
        <mxCell id="WIyWlLk6GJQsqaUBKTNV-11" value="Weigh 1 &amp;amp; 1, leave 2 in a pile" style="rounded=1;whiteSpace=wrap;html=1;fontSize=12;glass=0;strokeWidth=1;shadow=0;fillColor=#d5e8d4;strokeColor=#82b366;" parent="WIyWlLk6GJQsqaUBKTNV-1" vertex="1">
          <mxGeometry x="160" y="440" width="120" height="50" as="geometry" />
        </mxCell>
        <mxCell id="3buiqdaI4TqFU0zn9uId-4" value="" style="edgeStyle=orthogonalEdgeStyle;rounded=0;orthogonalLoop=1;jettySize=auto;html=1;exitX=0.5;exitY=1;exitDx=0;exitDy=0;" edge="1" parent="WIyWlLk6GJQsqaUBKTNV-1" source="3buiqdaI4TqFU0zn9uId-13" target="WIyWlLk6GJQsqaUBKTNV-11">
          <mxGeometry relative="1" as="geometry">
            <mxPoint x="220" y="430" as="sourcePoint" />
          </mxGeometry>
        </mxCell>
        <mxCell id="3buiqdaI4TqFU0zn9uId-10" value="Yes" style="edgeStyle=orthogonalEdgeStyle;rounded=0;orthogonalLoop=1;jettySize=auto;html=1;entryX=0.5;entryY=0;entryDx=0;entryDy=0;horizontal=1;" edge="1" parent="WIyWlLk6GJQsqaUBKTNV-1" source="3buiqdaI4TqFU0zn9uId-5" target="3buiqdaI4TqFU0zn9uId-14">
          <mxGeometry x="-0.0667" relative="1" as="geometry">
            <mxPoint x="220" y="780" as="targetPoint" />
            <mxPoint as="offset" />
          </mxGeometry>
        </mxCell>
        <mxCell id="3buiqdaI4TqFU0zn9uId-5" value="equal weight?" style="rhombus;whiteSpace=wrap;html=1;rounded=1;glass=0;strokeWidth=1;shadow=0;fillColor=#fff2cc;strokeColor=#d6b656;" vertex="1" parent="WIyWlLk6GJQsqaUBKTNV-1">
          <mxGeometry x="170" y="540" width="100" height="95" as="geometry" />
        </mxCell>
        <mxCell id="3buiqdaI4TqFU0zn9uId-12" value="12 Coins" style="ellipse;whiteSpace=wrap;html=1;" vertex="1" parent="WIyWlLk6GJQsqaUBKTNV-1">
          <mxGeometry x="165" y="-50" width="110" height="60" as="geometry" />
        </mxCell>
        <mxCell id="3buiqdaI4TqFU0zn9uId-21" value="" style="edgeStyle=orthogonalEdgeStyle;rounded=0;orthogonalLoop=1;jettySize=auto;html=1;entryX=1;entryY=0.5;entryDx=0;entryDy=0;" edge="1" parent="WIyWlLk6GJQsqaUBKTNV-1" source="3buiqdaI4TqFU0zn9uId-13" target="3buiqdaI4TqFU0zn9uId-22">
          <mxGeometry relative="1" as="geometry">
            <mxPoint x="130" y="340" as="targetPoint" />
          </mxGeometry>
        </mxCell>
        <mxCell id="3buiqdaI4TqFU0zn9uId-13" value="CF in the pile" style="ellipse;whiteSpace=wrap;html=1;" vertex="1" parent="WIyWlLk6GJQsqaUBKTNV-1">
          <mxGeometry x="167.5" y="310" width="105" height="70" as="geometry" />
        </mxCell>
        <mxCell id="3buiqdaI4TqFU0zn9uId-17" value="" style="edgeStyle=orthogonalEdgeStyle;rounded=0;orthogonalLoop=1;jettySize=auto;html=1;" edge="1" parent="WIyWlLk6GJQsqaUBKTNV-1" source="3buiqdaI4TqFU0zn9uId-14" target="3buiqdaI4TqFU0zn9uId-15">
          <mxGeometry relative="1" as="geometry" />
        </mxCell>
        <mxCell id="3buiqdaI4TqFU0zn9uId-36" value="" style="edgeStyle=orthogonalEdgeStyle;rounded=0;orthogonalLoop=1;jettySize=auto;html=1;" edge="1" parent="WIyWlLk6GJQsqaUBKTNV-1" source="3buiqdaI4TqFU0zn9uId-14" target="3buiqdaI4TqFU0zn9uId-35">
          <mxGeometry relative="1" as="geometry" />
        </mxCell>
        <mxCell id="3buiqdaI4TqFU0zn9uId-14" value="CF in the pile" style="ellipse;whiteSpace=wrap;html=1;" vertex="1" parent="WIyWlLk6GJQsqaUBKTNV-1">
          <mxGeometry x="165" y="710" width="110" height="70" as="geometry" />
        </mxCell>
        <mxCell id="3buiqdaI4TqFU0zn9uId-39" value="" style="edgeStyle=orthogonalEdgeStyle;rounded=0;orthogonalLoop=1;jettySize=auto;html=1;" edge="1" parent="WIyWlLk6GJQsqaUBKTNV-1" source="3buiqdaI4TqFU0zn9uId-15" target="3buiqdaI4TqFU0zn9uId-38">
          <mxGeometry relative="1" as="geometry" />
        </mxCell>
        <mxCell id="3buiqdaI4TqFU0zn9uId-15" value="Weigh 1 against the not CF" style="rounded=1;whiteSpace=wrap;html=1;fontSize=12;glass=0;strokeWidth=1;shadow=0;fillColor=#d5e8d4;strokeColor=#82b366;" vertex="1" parent="WIyWlLk6GJQsqaUBKTNV-1">
          <mxGeometry x="160" y="870" width="120" height="50" as="geometry" />
        </mxCell>
        <mxCell id="3buiqdaI4TqFU0zn9uId-22" value="Weighing 2 &amp;amp; 2 will definitely be not equal" style="shape=hexagon;perimeter=hexagonPerimeter2;whiteSpace=wrap;html=1;fixedSize=1;rounded=1;" vertex="1" parent="WIyWlLk6GJQsqaUBKTNV-1">
          <mxGeometry x="-50" y="305" width="130" height="80" as="geometry" />
        </mxCell>
        <mxCell id="3buiqdaI4TqFU0zn9uId-27" value="No" style="edgeStyle=orthogonalEdgeStyle;rounded=0;orthogonalLoop=1;jettySize=auto;html=1;exitX=1;exitY=0.5;exitDx=0;exitDy=0;" edge="1" parent="WIyWlLk6GJQsqaUBKTNV-1" source="3buiqdaI4TqFU0zn9uId-5" target="3buiqdaI4TqFU0zn9uId-26">
          <mxGeometry relative="1" as="geometry">
            <mxPoint x="272.5000000000002" y="610" as="sourcePoint" />
          </mxGeometry>
        </mxCell>
        <mxCell id="3buiqdaI4TqFU0zn9uId-29" value="" style="edgeStyle=orthogonalEdgeStyle;rounded=0;orthogonalLoop=1;jettySize=auto;html=1;" edge="1" parent="WIyWlLk6GJQsqaUBKTNV-1" source="3buiqdaI4TqFU0zn9uId-26" target="3buiqdaI4TqFU0zn9uId-28">
          <mxGeometry relative="1" as="geometry" />
        </mxCell>
        <mxCell id="3buiqdaI4TqFU0zn9uId-26" value="one of them CF" style="ellipse;whiteSpace=wrap;html=1;rounded=1;glass=0;strokeWidth=1;shadow=0;" vertex="1" parent="WIyWlLk6GJQsqaUBKTNV-1">
          <mxGeometry x="372.5" y="570" width="100" height="80" as="geometry" />
        </mxCell>
        <mxCell id="3buiqdaI4TqFU0zn9uId-31" value="" style="edgeStyle=orthogonalEdgeStyle;rounded=0;orthogonalLoop=1;jettySize=auto;html=1;" edge="1" parent="WIyWlLk6GJQsqaUBKTNV-1" source="3buiqdaI4TqFU0zn9uId-28" target="3buiqdaI4TqFU0zn9uId-30">
          <mxGeometry relative="1" as="geometry" />
        </mxCell>
        <mxCell id="3buiqdaI4TqFU0zn9uId-28" value="Wegh one of them againt one in the pile" style="whiteSpace=wrap;html=1;rounded=1;glass=0;strokeWidth=1;shadow=0;fillColor=#d5e8d4;strokeColor=#82b366;" vertex="1" parent="WIyWlLk6GJQsqaUBKTNV-1">
          <mxGeometry x="530" y="580" width="120" height="60" as="geometry" />
        </mxCell>
        <mxCell id="3buiqdaI4TqFU0zn9uId-33" value="Yes" style="edgeStyle=orthogonalEdgeStyle;rounded=0;orthogonalLoop=1;jettySize=auto;html=1;" edge="1" parent="WIyWlLk6GJQsqaUBKTNV-1" source="3buiqdaI4TqFU0zn9uId-30" target="3buiqdaI4TqFU0zn9uId-32">
          <mxGeometry relative="1" as="geometry" />
        </mxCell>
        <mxCell id="3buiqdaI4TqFU0zn9uId-45" value="No" style="edgeStyle=orthogonalEdgeStyle;rounded=0;orthogonalLoop=1;jettySize=auto;html=1;" edge="1" parent="WIyWlLk6GJQsqaUBKTNV-1" source="3buiqdaI4TqFU0zn9uId-30" target="3buiqdaI4TqFU0zn9uId-44">
          <mxGeometry relative="1" as="geometry" />
        </mxCell>
        <mxCell id="3buiqdaI4TqFU0zn9uId-30" value="Equal weight?" style="rhombus;whiteSpace=wrap;html=1;fillColor=#fff2cc;strokeColor=#d6b656;rounded=1;glass=0;strokeWidth=1;shadow=0;" vertex="1" parent="WIyWlLk6GJQsqaUBKTNV-1">
          <mxGeometry x="540" y="725" width="100" height="80" as="geometry" />
        </mxCell>
        <mxCell id="3buiqdaI4TqFU0zn9uId-32" value="The other one is CF" style="ellipse;whiteSpace=wrap;html=1;rounded=1;glass=0;strokeWidth=1;shadow=0;fillColor=#76608a;fontColor=#ffffff;strokeColor=#432D57;" vertex="1" parent="WIyWlLk6GJQsqaUBKTNV-1">
          <mxGeometry x="535" y="890" width="110" height="80" as="geometry" />
        </mxCell>
        <mxCell id="3buiqdaI4TqFU0zn9uId-35" value="Weigh 1 &amp;amp; 1 will be unequal and won&#39;t be conclusive" style="shape=hexagon;perimeter=hexagonPerimeter2;whiteSpace=wrap;html=1;fixedSize=1;rounded=1;" vertex="1" parent="WIyWlLk6GJQsqaUBKTNV-1">
          <mxGeometry x="-30" y="705" width="120" height="80" as="geometry" />
        </mxCell>
        <mxCell id="3buiqdaI4TqFU0zn9uId-41" value="Yes" style="edgeStyle=orthogonalEdgeStyle;rounded=0;orthogonalLoop=1;jettySize=auto;html=1;" edge="1" parent="WIyWlLk6GJQsqaUBKTNV-1" source="3buiqdaI4TqFU0zn9uId-38" target="3buiqdaI4TqFU0zn9uId-40">
          <mxGeometry relative="1" as="geometry" />
        </mxCell>
        <mxCell id="3buiqdaI4TqFU0zn9uId-43" value="No" style="edgeStyle=orthogonalEdgeStyle;rounded=0;orthogonalLoop=1;jettySize=auto;html=1;" edge="1" parent="WIyWlLk6GJQsqaUBKTNV-1" source="3buiqdaI4TqFU0zn9uId-38" target="3buiqdaI4TqFU0zn9uId-42">
          <mxGeometry relative="1" as="geometry" />
        </mxCell>
        <mxCell id="3buiqdaI4TqFU0zn9uId-38" value="Equal Weight?" style="rhombus;whiteSpace=wrap;html=1;fillColor=#fff2cc;strokeColor=#d6b656;rounded=1;glass=0;strokeWidth=1;shadow=0;" vertex="1" parent="WIyWlLk6GJQsqaUBKTNV-1">
          <mxGeometry x="170" y="990" width="100" height="80" as="geometry" />
        </mxCell>
        <mxCell id="3buiqdaI4TqFU0zn9uId-40" value="The other one is the CF" style="ellipse;whiteSpace=wrap;html=1;fillColor=#76608a;strokeColor=#432D57;rounded=1;glass=0;strokeWidth=1;shadow=0;fontColor=#ffffff;" vertex="1" parent="WIyWlLk6GJQsqaUBKTNV-1">
          <mxGeometry x="160" y="1150" width="120" height="80" as="geometry" />
        </mxCell>
        <mxCell id="3buiqdaI4TqFU0zn9uId-42" value="This is the CF" style="ellipse;whiteSpace=wrap;html=1;fillColor=#76608a;strokeColor=#432D57;rounded=1;glass=0;strokeWidth=1;shadow=0;fontColor=#ffffff;" vertex="1" parent="WIyWlLk6GJQsqaUBKTNV-1">
          <mxGeometry x="-30" y="990" width="110" height="80" as="geometry" />
        </mxCell>
        <mxCell id="3buiqdaI4TqFU0zn9uId-44" value="This is the CF" style="ellipse;whiteSpace=wrap;html=1;fillColor=#76608a;strokeColor=#432D57;rounded=1;glass=0;strokeWidth=1;shadow=0;fontColor=#ffffff;" vertex="1" parent="WIyWlLk6GJQsqaUBKTNV-1">
          <mxGeometry x="740" y="732.5" width="120" height="65" as="geometry" />
        </mxCell>
        <mxCell id="3buiqdaI4TqFU0zn9uId-50" value="" style="edgeStyle=orthogonalEdgeStyle;rounded=0;orthogonalLoop=1;jettySize=auto;html=1;" edge="1" parent="WIyWlLk6GJQsqaUBKTNV-1" source="3buiqdaI4TqFU0zn9uId-46" target="3buiqdaI4TqFU0zn9uId-49">
          <mxGeometry relative="1" as="geometry" />
        </mxCell>
        <mxCell id="3buiqdaI4TqFU0zn9uId-53" value="" style="edgeStyle=orthogonalEdgeStyle;rounded=0;orthogonalLoop=1;jettySize=auto;html=1;" edge="1" parent="WIyWlLk6GJQsqaUBKTNV-1" source="3buiqdaI4TqFU0zn9uId-46" target="3buiqdaI4TqFU0zn9uId-52">
          <mxGeometry relative="1" as="geometry" />
        </mxCell>
        <mxCell id="3buiqdaI4TqFU0zn9uId-46" value="Pile has legit coins&lt;br&gt;One of the weighed 4s have CF" style="ellipse;whiteSpace=wrap;html=1;" vertex="1" parent="WIyWlLk6GJQsqaUBKTNV-1">
          <mxGeometry x="498.25" y="175" width="129" height="70" as="geometry" />
        </mxCell>
        <mxCell id="3buiqdaI4TqFU0zn9uId-49" value="Weighed 4s - one set was heavier (H4s) and the other set was lighter (L4s)" style="shape=hexagon;perimeter=hexagonPerimeter2;whiteSpace=wrap;html=1;fixedSize=1;rounded=1;" vertex="1" parent="WIyWlLk6GJQsqaUBKTNV-1">
          <mxGeometry x="485.5" y="10" width="154.5" height="90" as="geometry" />
        </mxCell>
        <mxCell id="3buiqdaI4TqFU0zn9uId-55" value="" style="edgeStyle=orthogonalEdgeStyle;rounded=0;orthogonalLoop=1;jettySize=auto;html=1;" edge="1" parent="WIyWlLk6GJQsqaUBKTNV-1" source="3buiqdaI4TqFU0zn9uId-52" target="3buiqdaI4TqFU0zn9uId-54">
          <mxGeometry relative="1" as="geometry" />
        </mxCell>
        <mxCell id="3buiqdaI4TqFU0zn9uId-52" value="Weigh 2&amp;amp;2 of H4s or L4s" style="whiteSpace=wrap;html=1;rounded=1;fillColor=#d5e8d4;strokeColor=#82b366;" vertex="1" parent="WIyWlLk6GJQsqaUBKTNV-1">
          <mxGeometry x="502.75" y="290" width="120" height="60" as="geometry" />
        </mxCell>
        <mxCell id="3buiqdaI4TqFU0zn9uId-57" value="" style="edgeStyle=orthogonalEdgeStyle;rounded=0;orthogonalLoop=1;jettySize=auto;html=1;" edge="1" parent="WIyWlLk6GJQsqaUBKTNV-1" source="3buiqdaI4TqFU0zn9uId-54" target="3buiqdaI4TqFU0zn9uId-56">
          <mxGeometry relative="1" as="geometry" />
        </mxCell>
        <mxCell id="3buiqdaI4TqFU0zn9uId-59" value="Yes" style="edgeLabel;html=1;align=center;verticalAlign=middle;resizable=0;points=[];" vertex="1" connectable="0" parent="3buiqdaI4TqFU0zn9uId-57">
          <mxGeometry x="0.3016" y="-1" relative="1" as="geometry">
            <mxPoint x="10" y="1" as="offset" />
          </mxGeometry>
        </mxCell>
        <mxCell id="3buiqdaI4TqFU0zn9uId-63" style="edgeStyle=orthogonalEdgeStyle;rounded=0;orthogonalLoop=1;jettySize=auto;html=1;entryX=1;entryY=0.5;entryDx=0;entryDy=0;" edge="1" parent="WIyWlLk6GJQsqaUBKTNV-1" source="3buiqdaI4TqFU0zn9uId-54" target="3buiqdaI4TqFU0zn9uId-60">
          <mxGeometry relative="1" as="geometry" />
        </mxCell>
        <mxCell id="3buiqdaI4TqFU0zn9uId-64" value="No" style="edgeLabel;html=1;align=center;verticalAlign=middle;resizable=0;points=[];" vertex="1" connectable="0" parent="3buiqdaI4TqFU0zn9uId-63">
          <mxGeometry x="0.1408" y="-2" relative="1" as="geometry">
            <mxPoint x="-2" y="2" as="offset" />
          </mxGeometry>
        </mxCell>
        <mxCell id="3buiqdaI4TqFU0zn9uId-54" value="Equal weight?" style="rhombus;whiteSpace=wrap;html=1;fillColor=#fff2cc;strokeColor=#d6b656;rounded=1;" vertex="1" parent="WIyWlLk6GJQsqaUBKTNV-1">
          <mxGeometry x="505.5" y="385" width="114.5" height="80" as="geometry" />
        </mxCell>
        <mxCell id="3buiqdaI4TqFU0zn9uId-58" style="edgeStyle=orthogonalEdgeStyle;rounded=0;orthogonalLoop=1;jettySize=auto;html=1;entryX=1;entryY=0.5;entryDx=0;entryDy=0;" edge="1" parent="WIyWlLk6GJQsqaUBKTNV-1" source="3buiqdaI4TqFU0zn9uId-56" target="WIyWlLk6GJQsqaUBKTNV-11">
          <mxGeometry relative="1" as="geometry" />
        </mxCell>
        <mxCell id="3buiqdaI4TqFU0zn9uId-56" value="CF is the other set, now weigh the other set" style="ellipse;whiteSpace=wrap;html=1;rounded=1;" vertex="1" parent="WIyWlLk6GJQsqaUBKTNV-1">
          <mxGeometry x="360" y="370" width="94" height="55" as="geometry" />
        </mxCell>
        <mxCell id="3buiqdaI4TqFU0zn9uId-62" style="edgeStyle=orthogonalEdgeStyle;rounded=0;orthogonalLoop=1;jettySize=auto;html=1;" edge="1" parent="WIyWlLk6GJQsqaUBKTNV-1" source="3buiqdaI4TqFU0zn9uId-60" target="WIyWlLk6GJQsqaUBKTNV-11">
          <mxGeometry relative="1" as="geometry" />
        </mxCell>
        <mxCell id="3buiqdaI4TqFU0zn9uId-60" value="CF is one of the 2s, now weigh one of the 2s" style="ellipse;whiteSpace=wrap;html=1;rounded=1;" vertex="1" parent="WIyWlLk6GJQsqaUBKTNV-1">
          <mxGeometry x="410" y="460" width="95.5" height="65" as="geometry" />
        </mxCell>
      </root>
    </mxGraphModel>
  </diagram>
</mxfile>
